<svg width="150" height="56" viewBox="0 0 150 56" fill="none" xmlns="http://www.w3.org/2000/svg">
<path fill-rule="evenodd" clip-rule="evenodd" d="M84.1088 0.236068C87.8552 0.286988 91.4169 0.335396 94.7076 0.335396C95.2599 0.335396 95.7076 0.783111 95.7076 1.3354C95.7076 1.88768 95.2599 2.3354 94.7076 2.3354C91.365 2.3354 87.7673 2.28659 83.9967 2.23545C71.9625 2.07221 58.1679 1.88509 45.2857 3.18454C36.8371 4.03677 28.8399 5.52457 22.0445 8.05501C15.2479 10.5859 9.71969 14.135 6.11796 19.0682C3.614 22.4979 2.21083 25.9005 2.13139 29.2355C2.05252 32.5467 3.2752 35.9217 6.27242 39.3281L5.52165 39.9887L6.27242 39.3281C13.1194 47.1101 25.3463 50.7963 39.0993 52.4892C50.9656 53.9498 63.7464 53.9055 74.7751 53.8672C76.4865 53.8613 78.1558 53.8555 79.7729 53.8555C89.674 53.8555 99.7674 53.7986 109.236 52.5266C118.702 51.255 127.469 48.7773 134.735 43.9856C139.013 41.1641 143.665 37.6107 146.135 33.8952C147.361 32.0507 147.986 30.2602 147.855 28.5591C147.727 26.8862 146.853 25.1217 144.717 23.3337L145.278 22.6636L144.717 23.3337C140.194 19.5478 135.608 16.0317 130.377 12.6768L130.917 11.835L130.377 12.6768C129.363 12.0262 127.659 11.3941 125.33 10.8066C123.025 10.2252 120.196 9.70789 116.994 9.24946C110.591 8.33279 102.768 7.66072 94.8182 7.17094C78.9218 6.19162 62.5893 5.94536 56.2524 5.91712C55.7001 5.91466 55.2544 5.46496 55.2569 4.91268C55.2593 4.3604 55.7091 3.91468 56.2613 3.91714C62.6196 3.94548 78.9932 4.19222 94.9412 5.17473C102.913 5.66588 110.797 6.34192 117.277 7.26964C120.516 7.7334 123.421 8.26239 125.819 8.86738C128.194 9.46637 130.159 10.1609 131.457 10.9933C136.778 14.4061 141.433 17.9769 146.001 21.8001L145.359 22.5669L146.001 21.8001C148.442 23.8436 149.67 26.0704 149.849 28.4058C150.027 30.7128 149.167 32.9475 147.801 35.0023C145.087 39.0854 140.124 42.8272 135.836 45.6552C128.222 50.6762 119.126 53.2161 109.502 54.5088C99.8813 55.8012 89.6582 55.8555 79.7729 55.8555C78.1674 55.8555 76.5058 55.8613 74.7984 55.8673C63.7795 55.9061 50.8575 55.9516 38.855 54.4742C25.0379 52.7735 12.1415 49.0263 4.77089 40.6493C1.50095 36.9329 0.0391303 33.0849 0.131958 29.1879C0.224218 25.3147 1.84896 21.5236 4.50266 17.8889C8.41346 12.5323 14.3301 8.79351 21.3466 6.18074C28.3643 3.56749 36.5484 2.05574 45.0849 1.19464C58.0932 -0.117526 72.057 0.0722647 84.1088 0.236068Z" fill="#DCE3DD"/>
</svg>
