<svg width="464" height="278" viewBox="0 0 464 278" fill="none" xmlns="http://www.w3.org/2000/svg">
<path opacity="0.4" fill-rule="evenodd" clip-rule="evenodd" d="M461.222 26.8987C439.971 7.99219 413.602 -1.69257 383.28 5.02855L383.064 4.05113L383.28 5.02855C370.146 7.94003 358.436 13.3343 346.746 18.719C344.203 19.8904 341.661 21.0614 339.105 22.2062C324.869 28.584 310.302 34.0987 293.305 33.8218C288.153 33.7379 279.915 33.2952 269.506 32.7358C245.815 31.4625 210.876 29.5848 175.467 29.9564C150.04 30.2233 124.515 31.6548 102.989 35.2997C81.3754 38.9595 64.1226 44.8023 54.9208 53.6517C31.2484 76.4176 11.2399 97.2021 5.10074 129.084C-1.74671 164.644 11.3525 192.834 34.0973 219.222C47.3585 234.607 63.6998 243.741 81.3197 250.755C90.136 254.264 99.2484 257.234 108.454 260.198C108.992 260.372 109.53 260.545 110.068 260.718C118.731 263.506 127.464 266.316 136.022 269.577C144.805 272.924 156.616 274.144 169.763 274.001C182.882 273.859 197.2 272.363 210.924 270.367C224.643 268.372 237.74 265.881 248.417 263.755C251.001 263.241 253.45 262.747 255.735 262.285C262.844 260.85 268.366 259.736 271.438 259.335L271.631 260.823L271.438 259.335C275.68 258.783 282.865 259.528 291.3 260.869C299.803 262.221 309.792 264.217 319.755 266.271C322.134 266.762 324.511 267.255 326.866 267.745C334.39 269.308 341.695 270.825 348.143 272.046C356.654 273.657 363.511 274.718 367.37 274.718C368.199 274.718 368.87 275.389 368.87 276.218C368.87 277.046 368.199 277.718 367.37 277.718C363.179 277.718 356.039 276.594 347.585 274.994C341.108 273.768 333.766 272.242 326.235 270.678C323.885 270.189 321.516 269.697 319.149 269.209C309.186 267.155 299.257 265.172 290.829 263.832C282.331 262.481 275.569 261.823 271.825 262.31C268.867 262.696 263.509 263.777 256.451 265.202C254.142 265.668 251.651 266.171 249.002 266.698C238.309 268.826 225.152 271.329 211.356 273.336C197.563 275.342 183.101 276.857 169.796 277.001C156.52 277.145 144.263 275.927 134.954 272.38C126.473 269.149 117.812 266.361 109.133 263.569C108.6 263.397 108.067 263.226 107.534 263.054C98.3359 260.092 89.1328 257.094 80.2102 253.542C62.3522 246.433 45.522 237.072 31.8249 221.18C8.73668 194.394 -4.92853 165.302 2.15485 128.517L3.62779 128.8L2.15485 128.517C8.49301 95.6015 29.1954 74.2297 52.8412 51.4893L53.7635 52.4483L52.8413 51.4893C62.7534 41.9569 80.8255 36.0099 102.488 32.3418C124.239 28.6589 149.942 27.2242 175.436 26.9566C210.92 26.5841 246.279 28.4817 269.998 29.7546C280.286 30.3067 288.384 30.7413 293.353 30.8222C309.659 31.0878 323.72 25.8113 337.879 19.4684C340.374 18.3504 342.876 17.1976 345.394 16.0371C357.095 10.6445 369.153 5.08737 382.631 2.09965L382.956 3.5641L382.631 2.09965C414.059 -4.86669 441.383 5.23255 463.216 24.6574C463.835 25.2081 463.89 26.1562 463.339 26.7751C462.789 27.394 461.841 27.4494 461.222 26.8987Z" fill="#8EB391"/>
</svg>
