<svg width="274" height="154" viewBox="0 0 274 154" fill="none" xmlns="http://www.w3.org/2000/svg">
<path opacity="0.6" fill-rule="evenodd" clip-rule="evenodd" d="M287.047 1.52558C287.309 2.31149 286.884 3.16097 286.098 3.42294C279.432 5.64509 273.44 9.24431 267.478 13.2129C265.968 14.2185 264.454 15.2515 262.932 16.2906C258.496 19.3184 253.983 22.3989 249.238 25.0084C222.087 39.9416 195.262 45.5907 166.664 51.6131C160.354 52.9419 153.958 54.2888 147.453 55.7576C142.888 56.7884 138.126 57.7282 133.268 58.6869C122.528 60.8064 111.319 63.0185 100.729 66.5119C85.416 71.5633 71.7778 79.1933 63.3324 92.7664C59.2981 99.2501 56.2397 106.07 53.3563 113.053C52.5867 114.917 51.8279 116.797 51.0657 118.685C48.9859 123.837 46.8808 129.053 44.4613 134.176L43.1049 133.536L44.4613 134.176C42.7981 137.698 41.3014 141.056 39.8753 144.256C36.444 151.953 33.4208 158.736 29.4682 164.69C23.7817 173.255 16.147 180.196 2.61555 186.285C1.86008 186.625 0.972074 186.288 0.63212 185.532C0.292165 184.777 0.629 183.889 1.38446 183.549C14.4488 177.67 21.6234 171.082 26.9688 163.03C30.7758 157.296 33.6438 150.861 37.0203 143.284C38.4654 140.042 40.0037 136.59 41.7485 132.895C44.1282 127.856 46.1851 122.76 48.2543 117.634C49.0233 115.729 49.7939 113.82 50.5834 111.908C53.484 104.884 56.6174 97.8797 60.7852 91.1815C69.7622 76.7541 84.1691 68.8156 99.7892 63.663C110.559 60.1102 122.088 57.8339 132.914 55.6963C137.722 54.7471 142.39 53.8253 146.793 52.8313C153.388 51.3421 159.842 49.9817 166.186 48.6448C194.752 42.6245 221.067 37.0788 247.792 22.3798C252.399 19.8459 256.739 16.8841 261.141 13.8797C262.687 12.8247 264.24 11.7645 265.816 10.7157C271.828 6.71316 278.091 2.92973 285.15 0.576893C285.936 0.314922 286.785 0.739664 287.047 1.52558Z" fill="#DCE3DD"/>
</svg>
