<svg width="734" height="381" viewBox="0 0 734 381" fill="none" xmlns="http://www.w3.org/2000/svg">
<g clip-path="url(#clip0_1_477)">
<g opacity="0.2">
<path opacity="0.2" fill-rule="evenodd" clip-rule="evenodd" d="M710.489 207.597C715.297 208.891 719.973 212.363 724.376 218.843C735.334 234.971 734.312 248.204 729.747 256.602C727.486 260.762 724.362 263.714 721.454 265.192C720.003 265.929 718.554 266.325 717.263 266.27C715.958 266.214 714.761 265.687 714 264.538C710.953 260.091 703.463 253.103 695.182 246.123C687.185 239.383 678.562 232.741 672.774 228.569C669.682 230.866 667.058 232.683 664.793 234.014C662.407 235.416 660.363 236.312 658.551 236.635C656.705 236.963 655.093 236.697 653.633 235.787C652.205 234.898 651.003 233.442 649.863 231.553C649.056 230.218 648.791 228.358 649.092 226.551C642.469 226.543 635.181 227.166 628.072 229.166C618.59 231.834 609.456 236.944 602.617 246.254C595.777 255.565 591.159 269.179 590.885 289L589 288.971C589.279 268.834 593.977 254.765 601.129 245.029C608.282 235.292 617.816 229.988 627.588 227.238C635.107 225.123 642.786 224.513 649.673 224.558C650.239 223.237 651.164 222.014 652.51 221.132C656.27 218.667 662.778 219.153 672.747 226.144C674.461 224.836 676.262 223.342 678.17 221.761C679.803 220.406 681.515 218.987 683.316 217.565C687.375 214.36 691.774 211.24 696.333 209.234C700.899 207.225 705.688 206.306 710.489 207.597ZM669.057 226.051C660.841 220.941 655.999 221.192 653.502 222.828C652.778 223.302 652.215 223.912 651.797 224.593C653.1 224.626 654.37 224.681 655.599 224.751C659.712 224.986 663.38 225.391 666.339 225.735C666.682 225.775 667.014 225.814 667.336 225.852C667.949 225.923 668.523 225.991 669.057 226.051ZM651.011 226.571C651.004 226.602 650.998 226.633 650.991 226.665C650.686 228.168 650.922 229.602 651.451 230.479L650.695 230.99L651.451 230.479C652.521 232.251 653.53 233.408 654.589 234.068C655.616 234.708 656.768 234.929 658.238 234.667C659.742 234.399 661.567 233.628 663.878 232.27C665.65 231.228 667.675 229.863 670.02 228.163C669.167 228.074 668.203 227.961 667.149 227.837C666.819 227.798 666.48 227.758 666.133 227.718C663.182 227.375 659.556 226.975 655.498 226.744C654.052 226.661 652.553 226.6 651.011 226.571ZM674.417 227.341C680.23 231.558 688.587 238.014 696.356 244.562C704.605 251.515 712.31 258.669 715.531 263.373L715.535 263.381L715.54 263.388C715.885 263.91 716.464 264.239 717.339 264.276C718.231 264.314 719.368 264.038 720.638 263.393C723.17 262.107 726.022 259.454 728.113 255.607C732.253 247.992 733.442 235.603 722.845 220.008C718.627 213.8 714.294 210.679 710.024 209.531C705.747 208.38 701.389 209.17 697.057 211.076C692.717 212.986 688.467 215.986 684.443 219.164C682.733 220.514 681.04 221.916 679.403 223.273C677.661 224.716 675.982 226.107 674.409 227.33L674.421 227.338L674.417 227.341Z" fill="white"/>
<path opacity="0.2" fill-rule="evenodd" clip-rule="evenodd" d="M629.47 10.4061C626.21 9.46195 622.571 10.2109 618.676 12.7025C614.769 15.2016 610.719 19.3888 606.787 25.0441L606.063 24.4565L606.787 25.0441C598.928 36.3482 591.773 53.1871 587.279 72.8877L587.279 72.8878C582.785 92.5877 581.845 111.229 583.893 125.408M617.727 10.9716C621.913 8.29398 626.07 7.33905 629.953 8.46311C633.832 9.58605 637.055 12.6732 639.57 17.2802L639.57 17.2803C642.087 21.8902 643.899 28.033 644.947 35.2817L644.947 35.2818C647.041 49.7802 646.068 68.6968 641.529 88.5936C636.991 108.49 629.746 125.594 621.702 137.164L621.051 136.635L621.702 137.164C617.68 142.948 613.459 147.351 609.273 150.029L608.816 149.195L609.273 150.029C605.087 152.706 600.93 153.661 597.047 152.537C593.168 151.414 589.945 148.327 587.43 143.719C584.913 139.11 583.101 132.967 582.053 125.719L582.053 125.719C579.959 111.22 580.932 92.3033 585.471 72.4065C590.009 52.5103 597.254 35.4061 605.298 23.8362C609.32 18.0516 613.541 13.6488 617.727 10.9716ZM637.966 18.302C635.612 13.9906 632.736 11.3514 629.471 10.4061L629.47 10.4061M637.966 18.302C640.325 22.6228 642.082 28.4988 643.107 35.592C645.155 49.7704 644.215 68.4123 639.721 88.1123L640.625 88.3529L639.721 88.1123C635.227 107.813 628.072 124.652 620.213 135.956C616.281 141.611 612.231 145.798 608.324 148.298C604.429 150.79 600.79 151.538 597.529 150.594C594.264 149.649 591.388 147.01 589.034 142.698C586.675 138.377 584.918 132.501 583.893 125.409M608.324 148.298L608.799 149.163L608.324 148.298L644.027 35.4368L643.107 35.592" fill="white"/>
<path opacity="0.2" fill-rule="evenodd" clip-rule="evenodd" d="M509.953 86.4692C511.797 84.8848 515.27 84.4898 520.353 85.7678ZM520.791 83.8156L520.572 84.7903L520.791 83.8156C525.973 85.1185 532.073 87.9083 538.322 91.6432C550.823 99.1137 563.926 110.367 571.493 121.078C579.062 131.791 583.825 143.275 585.411 153.18C586.997 163.083 585.41 171.399 580.279 175.81L580.279 175.81C575.125 180.239 567.381 179.897 559.042 175.77L559.042 175.77C550.706 171.645 541.767 163.736 534.2 153.025C526.63 142.31 517.699 127.474 511.948 114.213L512.81 113.795L511.948 114.213C509.071 107.582 506.993 101.35 506.275 96.227L506.275 96.227C505.557 91.106 506.199 87.1103 508.757 84.9121L508.757 84.912C511.336 82.696 515.608 82.5123 520.791 83.8156ZM520.353 85.7678C525.299 87.0114 531.226 89.7072 537.389 93.3902ZM537.389 93.3902L537.852 92.5244ZM508.151 95.9326C507.456 90.9698 508.221 87.9586 509.953 86.4693ZM569.974 122.28C562.604 111.849 549.728 100.764 537.389 93.3902L537.852 92.5244M508.151 95.9327C508.831 100.781 510.825 106.813 513.672 113.377L513.672 113.377C519.353 126.474 528.205 141.188 535.72 151.824L534.96 152.425L535.72 151.824C543.142 162.33 551.851 169.996 559.846 173.953C567.927 177.951 574.77 177.959 579.082 174.253C583.414 170.529 585.085 163.16 583.54 153.515C582.013 143.978 577.396 132.785 569.974 122.28" fill="white"/>
<path opacity="0.2" fill-rule="evenodd" clip-rule="evenodd" d="M545.514 125.833L534.488 116.222L535.577 114.588C538.343 116.361 541.416 118.858 544.657 122.114L539.704 95.3874L541.56 95L547.05 124.625C549.357 127.151 551.733 130.052 554.131 133.341C556.336 136.366 558.56 139.72 560.766 143.415L556.327 107.6L558.201 107.338L563.197 147.641C565.272 151.385 567.32 155.439 569.309 159.812L569.305 159.815L569.309 159.813C570.186 161.743 571.052 163.736 571.904 165.791L574.062 129.499L575.949 129.626L573.554 169.9C585.801 201.396 591 246.001 591 307.866L589.118 308L571.678 170.346L567.844 161.252H540.632V159.245H566.881L561.473 148.493L552.88 134.959H524V132.952H551.315L545.514 125.833ZM588.986 291.904L574.621 178.518C583.747 206.158 588.212 243.119 588.986 291.904Z" fill="white"/>
<path opacity="0.2" fill-rule="evenodd" clip-rule="evenodd" d="M650.354 141.996C648.627 140.231 646.246 139.65 643.163 140.215C640.046 140.788 636.43 142.505 632.62 145.019C625.018 150.036 617.121 157.906 611.716 164.604C606.467 171.108 603.529 178.754 602.962 185.801C602.396 192.85 604.2 199.153 608.252 203.292C614.602 209.781 625.272 209.546 634.835 202.601L628.946 194.276L625.456 189.341L630.92 191.04L642.785 194.73C647.628 188.169 651.544 177.333 653.239 166.817C654.126 161.316 654.384 156.026 653.894 151.606C653.397 147.133 652.171 143.852 650.354 141.996ZM651.634 140.538C653.912 142.865 655.224 146.702 655.742 151.368C656.259 156.034 655.981 161.529 655.073 167.161C653.3 178.159 649.131 189.659 643.833 196.521L643.444 197.025L630.405 192.97L630.351 192.953L630.425 193.058L637.488 203.042L636.706 203.645C626.533 211.481 614.386 212.326 606.972 204.75C602.41 200.089 600.506 193.124 601.108 185.627C601.711 178.128 604.823 170.086 610.312 163.285C615.804 156.481 623.842 148.459 631.649 143.306C635.554 140.73 639.402 138.869 642.85 138.236C646.304 137.603 649.349 138.204 651.634 140.538Z" fill="white"/>
<path opacity="0.2" fill-rule="evenodd" clip-rule="evenodd" d="M642.548 271.004C650.743 270.861 660.71 274.266 671.413 281.505C678.663 286.41 686.267 292.74 690.808 299.136C693.077 302.332 694.645 305.632 694.947 308.845C695.255 312.121 694.234 315.209 691.526 317.855L691.111 318.261L690.575 318.067C675.036 312.44 640.111 300.331 623.052 296.283L589 352V348.609C589 332.041 591.906 317.257 597.556 307.19C600.386 302.148 603.928 298.247 608.177 295.932C611.414 294.167 615.023 293.344 618.969 293.606C617.753 292.513 616.822 291.421 616.163 290.355C615.019 288.504 614.647 286.638 615.178 284.997C615.71 283.356 617.06 282.206 618.825 281.597C620.431 281.043 622.445 280.908 624.731 281.249C628.251 274.663 634.568 271.144 642.548 271.004ZM623.832 283.143C622.04 282.947 620.548 283.103 619.414 283.494C618.027 283.972 617.253 284.767 616.969 285.642C616.685 286.519 616.807 287.741 617.749 289.266C618.517 290.508 619.798 291.89 621.708 293.324C621.881 289.479 622.606 286.071 623.832 283.143ZM621.058 295.861L590.937 345.147C591.316 330.209 594.159 317.162 599.185 308.206C601.886 303.394 605.192 299.805 609.046 297.704C612.541 295.799 616.542 295.088 621.058 295.861ZM623.738 294.397L624.147 294.492L624.142 294.499C641.349 298.678 675.068 310.354 690.64 315.981C692.619 313.854 693.296 311.516 693.063 309.042C692.81 306.344 691.464 303.39 689.293 300.332C684.953 294.22 677.572 288.043 670.391 283.185C659.881 276.076 650.279 272.864 642.579 272.999C634.965 273.133 629.23 276.525 626.142 282.688L623.738 294.397Z" fill="white"/>
<path opacity="0.2" fill-rule="evenodd" clip-rule="evenodd" d="M554.866 180.96C552.522 179.49 548.466 178.58 544.528 179.209L544.528 179.209C541.595 179.677 539.234 180.808 537.107 182.174C542.56 181.104 549.078 181.766 555.66 184.925C556.669 184.124 556.787 183.476 556.714 183.058C556.613 182.478 556.066 181.712 554.866 180.96ZM557.495 185.871C558.351 184.94 558.76 183.862 558.556 182.69C558.304 181.24 557.164 180.075 555.813 179.228C553.056 177.499 548.558 176.536 544.252 177.224M555.818 187.215C559.187 188.957 562.578 191.409 565.842 194.697C578.274 207.221 588.907 231.961 589.127 276L591 275.989C590.779 231.657 580.076 206.281 567.126 193.235C564.003 190.09 560.753 187.666 557.495 185.871M553.664 186.194C546.229 182.987 539.057 183.129 533.764 185.219C534.12 185.334 534.495 185.459 534.883 185.588L535.001 185.628C536.714 186.2 538.748 186.879 540.977 187.357C544.978 188.216 549.485 188.399 553.664 186.194ZM530.503 184.559C531.07 184.147 531.648 183.707 532.242 183.253C535.413 180.835 539.065 178.051 544.252 177.224M530.503 184.559C510.914 183.383 499.519 186.733 493.316 192.817C487.026 198.987 486.323 207.703 487.435 216.4L487.435 216.4C488.001 220.826 489.686 226.333 491.909 231.445C494.128 236.549 496.932 241.37 499.794 244.368C501.219 245.861 502.737 246.984 504.276 247.39C505.885 247.814 507.45 247.432 508.784 246.075C510.063 244.775 511.083 242.63 511.857 239.612C512.636 236.574 513.192 232.547 513.468 227.368C514.252 212.711 516.22 204.305 519.185 198.672C522.089 193.155 525.997 190.195 531.044 186.586C531.282 186.607 531.624 186.673 532.093 186.8C532.711 186.968 533.454 187.214 534.325 187.505L534.467 187.552C536.168 188.12 538.283 188.826 540.609 189.325C545.193 190.309 550.741 190.52 555.818 187.215M527.878 186.435L527.35 186.812L527.403 186.809C523.485 189.74 520.141 192.77 517.553 197.686C514.375 203.724 512.386 212.5 511.598 227.253C511.325 232.353 510.782 236.228 510.051 239.08C509.314 241.952 508.412 243.686 507.494 244.62C506.631 245.497 505.723 245.705 504.724 245.441C503.653 245.159 502.424 244.316 501.103 242.933C498.472 240.177 495.783 235.601 493.607 230.598C491.435 225.603 489.824 220.294 489.291 216.128C488.206 207.642 488.983 199.788 494.581 194.298C499.956 189.026 509.999 185.696 527.878 186.435Z" fill="white"/>
<path opacity="0.2" fill-rule="evenodd" clip-rule="evenodd" d="M315 1H474V248H315V1ZM316.883 3.00045V246H472.117V3.00045H316.883Z" fill="white"/>
<path opacity="0.2" fill-rule="evenodd" clip-rule="evenodd" d="M321 8H468V241H321V8ZM322.89 9.99944V239.001H466.11V9.99944H322.89Z" fill="white"/>
<path opacity="0.2" fill-rule="evenodd" clip-rule="evenodd" d="M336 35H453V213H336V35ZM337.892 37.005V210.995H451.108V37.005H337.892Z" fill="white"/>
<path opacity="0.2" fill-rule="evenodd" clip-rule="evenodd" d="M397.229 81.3003C391.242 68.7241 385.101 53.978 379 36.7038L380.766 36C386.845 53.2114 392.959 67.8901 398.912 80.3961L397.229 81.3003ZM423.064 125.272L424.434 123.905L452 150.325L451.021 152L451.368 151.068C451.021 152 451.02 152 451.02 152L451.018 151.999L451.015 151.998L451.005 151.993L450.973 151.979C450.959 151.973 450.941 151.965 450.921 151.956C450.903 151.948 450.883 151.939 450.86 151.928C450.763 151.883 450.623 151.817 450.442 151.725C450.08 151.542 449.553 151.261 448.875 150.856C447.517 150.047 445.553 148.748 443.085 146.77C438.149 142.815 431.201 136.15 423.064 125.272ZM437.493 139.12L440.046 141.566C439.23 140.813 438.378 139.999 437.493 139.12Z" fill="white"/>
<path opacity="0.2" fill-rule="evenodd" clip-rule="evenodd" d="M402.418 62.2931C400.202 65.8972 398.75 70.9779 398.649 78.0368C398.39 96.0459 397.615 105.824 396.833 111.707C396.441 114.655 396.049 116.619 395.722 118.14C395.668 118.394 395.616 118.633 395.566 118.859C395.316 120.01 395.132 120.856 395.03 121.783L395.03 121.783C394.904 122.936 394.661 124.351 394.391 125.913C394.376 126.005 394.36 126.097 394.344 126.189C394.054 127.876 393.735 129.753 393.48 131.755C392.97 135.765 392.725 140.214 393.472 144.484M402.418 62.2931C404.628 58.6989 407.642 56.5001 411.002 55.2776ZM411.002 55.2776C417.777 52.8127 425.945 54.3294 431.432 56.549ZM431.974 54.619C426.28 52.3426 417.699 50.7176 410.396 53.3746C406.691 54.7226 403.314 57.1759 400.846 61.1889C398.385 65.1921 396.874 70.6738 396.769 78.006C396.511 95.9744 395.738 105.659 394.971 111.425C394.589 114.302 394.208 116.208 393.889 117.691C393.839 117.927 393.789 118.155 393.741 118.376C393.49 119.528 393.277 120.501 393.163 121.55M431.974 54.619C432.552 54.7018 433.165 55.1183 433.721 55.7393C434.381 56.4757 435.084 57.6283 435.734 59.3631L435.735 59.3634C435.976 60.0077 436.173 61.1003 436.347 62.4103C436.526 63.7572 436.693 65.4431 436.846 67.3457C437.154 71.1527 437.413 75.8681 437.607 80.5571C437.801 85.2473 437.93 89.9207 437.979 93.6462C438.003 95.5084 438.007 97.1387 437.989 98.4182C437.971 99.6709 437.931 100.655 437.854 101.178C437.704 102.21 437.269 103.459 436.618 104.891C435.961 106.337 435.054 108.03 433.915 109.964C431.637 113.832 428.395 118.723 424.262 124.628C420.492 130.014 418.821 135.777 417.125 141.623C417.016 142 416.906 142.378 416.796 142.756C414.989 148.953 413.004 155.2 408.2 160.691C403.521 166.038 400.233 167.444 397.712 166.886C396.471 166.612 395.561 165.884 394.895 165.214C394.612 164.93 394.359 164.64 394.149 164.4C394.115 164.361 394.083 164.324 394.051 164.288C393.803 164.005 393.656 163.851 393.551 163.771M431.735 56.614H431.593L431.432 56.549M431.735 56.614C431.734 56.6141 431.733 56.6144 431.733 56.6147C431.732 56.6218 431.961 56.6812 432.363 57.1298C432.813 57.6319 433.401 58.5434 433.989 60.1112C434.134 60.4989 434.308 61.3601 434.485 62.6926C434.657 63.9883 434.821 65.6338 434.973 67.5189C435.278 71.2871 435.535 75.9717 435.728 80.6458C435.921 85.3188 436.05 89.9718 436.098 93.6741C436.122 95.5259 436.126 97.1349 436.108 98.3874C436.09 99.6668 436.049 100.508 435.997 100.869C435.889 101.606 435.55 102.643 434.927 104.012C434.31 105.368 433.443 106.993 432.324 108.893C430.087 112.692 426.879 117.533 422.756 123.424C418.786 129.097 417.026 135.171 415.345 140.971C415.23 141.368 415.116 141.764 415.001 142.158C413.196 148.347 411.31 154.192 406.826 159.318C402.217 164.586 399.571 165.245 398.093 164.918C397.334 164.75 396.728 164.298 396.184 163.751C395.948 163.513 395.739 163.275 395.529 163.034C395.493 162.993 395.458 162.953 395.422 162.912C395.2 162.66 394.933 162.358 394.655 162.144C394.647 162.132 394.6 162.066 394.543 161.879C394.465 161.625 394.401 161.255 394.355 160.746C394.264 159.727 394.263 158.364 394.263 156.686V156.66C394.263 153.352 394.263 149 393.472 144.485" fill="white"/>
<path opacity="0.2" fill-rule="evenodd" clip-rule="evenodd" d="M354.461 160.347C352.556 159.818 350.64 159.795 347.63 160.911L347.61 160.919L338.494 163.817L407.558 210.155C408.043 208.87 408.411 207.163 408.669 205.497C408.994 203.403 409.118 201.553 409.118 201.039C409.118 200.437 409.113 200.127 409.019 199.761C408.924 199.388 408.718 198.9 408.211 198.053C408.124 197.909 407.776 197.45 407.145 196.674C406.539 195.928 405.724 194.951 404.761 193.811C402.837 191.533 400.336 188.621 397.767 185.652C392.626 179.712 387.227 173.557 385.652 171.804C382.605 168.413 378.003 165.569 374.465 164.445C372.686 163.88 368.273 163.011 363.96 162.198C363.019 162.021 362.082 161.846 361.181 161.679C358.027 161.091 355.32 160.586 354.461 160.347ZM347.029 159.021C350.335 157.798 352.631 157.776 354.939 158.418C355.714 158.634 358.281 159.112 361.402 159.694C362.326 159.866 363.299 160.048 364.289 160.234C368.544 161.036 373.094 161.927 375.005 162.534C378.849 163.755 383.737 166.78 387.015 170.428C388.603 172.196 394.012 178.362 399.154 184.303C401.725 187.275 404.232 190.193 406.164 192.481C407.129 193.624 407.953 194.612 408.571 195.372C409.164 196.102 409.622 196.688 409.799 196.983C410.346 197.897 410.667 198.582 410.835 199.237C411 199.88 411 200.436 411 200.993V201.039C411 201.697 410.861 203.661 410.526 205.821C410.196 207.954 409.649 210.459 408.767 212.094L408.279 213L334 163.163L347.029 159.021ZM344.131 197.375C344.789 198.394 345.218 199.015 345.364 199.177C345.699 199.55 346.104 200.06 346.525 200.589C346.783 200.913 347.046 201.245 347.303 201.556C348.022 202.429 348.75 203.229 349.44 203.742C349.99 204.149 350.999 204.693 352.341 205.318C353.662 205.934 355.247 206.601 356.904 207.263C360.217 208.586 363.787 209.872 366.061 210.65L365.482 212.548C363.188 211.763 359.588 210.467 356.24 209.13C354.567 208.462 352.948 207.78 351.583 207.144C350.238 206.517 349.077 205.907 348.361 205.376C347.47 204.715 346.616 203.755 345.885 202.868C345.569 202.484 345.283 202.124 345.02 201.792C344.638 201.311 344.306 200.892 344.001 200.553C343.725 200.246 343.197 199.46 342.578 198.502C341.935 197.506 341.134 196.227 340.284 194.853C338.585 192.105 336.684 188.962 335.452 186.905L337.041 185.836C338.27 187.887 340.166 191.022 341.858 193.76C342.705 195.129 343.498 196.395 344.131 197.375Z" fill="white"/>
<path opacity="0.2" fill-rule="evenodd" clip-rule="evenodd" d="M375.492 66.3167C375.509 66.3188 375.517 66.3189 375.517 66.3189L375.517 66.3189C375.698 66.3189 375.856 66.3656 375.953 66.3986C376.062 66.4362 376.172 66.4849 376.276 66.5355C376.482 66.6369 376.717 66.7738 376.961 66.9282C377.453 67.2391 378.046 67.6601 378.648 68.1185C379.835 69.0225 381.156 70.147 381.852 70.9432C383.212 72.4963 384 74.1745 384 75.9647V81.7054C384 82.1704 383.922 82.8837 383.706 83.6449C383.49 84.407 383.116 85.2838 382.481 86.0087M371.941 66.4362C372.815 65.9366 373.67 65.9546 374.322 66.0611C374.602 66.1068 374.866 66.1729 375.068 66.2236C375.095 66.2306 375.122 66.2373 375.148 66.2436C375.26 66.2714 375.344 66.2912 375.414 66.3044C375.448 66.3107 375.473 66.3146 375.492 66.3167M374.044 68.1067C373.597 68.0338 373.196 68.0518 372.815 68.2697L372.815 68.2699C371.861 68.8142 368.312 71.3117 366.613 72.5247L366.61 72.5263L366.61 72.5263C366.35 72.7109 366.089 73.0235 366.018 74.2985C365.946 75.6092 366.091 77.6276 366.408 80.8784C366.718 84.068 367.177 86.2949 367.682 87.6947C367.935 88.3976 368.179 88.8328 368.378 89.0754C368.513 89.239 368.592 89.2756 368.614 89.2825C369.294 89.2834 369.969 89.4575 370.572 89.6132C370.644 89.6318 370.715 89.6502 370.785 89.668C371.476 89.8433 372.175 90 373.005 90C373.973 90 374.521 89.9975 374.986 89.9216C375.407 89.8528 375.777 89.7193 376.337 89.3998M368.621 89.2838C368.621 89.284 368.619 89.2838 368.615 89.2827C368.619 89.2831 368.621 89.2836 368.621 89.2838ZM374.044 68.1067C374.246 68.1398 374.435 68.187 374.642 68.2387ZM374.642 68.2387C374.671 68.2459 374.7 68.2532 374.729 68.2606ZM374.729 68.2606L374.737 68.2625ZM374.737 68.2625C374.916 68.307 375.17 68.37 375.419 68.3842ZM375.419 68.3842C375.438 68.3924 375.466 68.4048 375.503 68.4228C375.627 68.4839 375.8 68.5825 376.017 68.7195C376.447 68.9916 376.993 69.3777 377.569 69.8162C378.737 70.7059 379.928 71.734 380.488 72.3736L380.488 72.3739C381.642 73.6924 382.11 74.8847 382.11 75.9647V81.7054C382.11 81.9581 382.062 82.4647 381.902 83.0311C381.741 83.5964 381.487 84.1548 381.116 84.5779L381.116 84.5782C380.487 85.2975 379.558 86.3582 378.633 87.327C377.674 88.3312 376.826 89.1202 376.337 89.3997M375.381 68.3703C375.381 68.3702 375.383 68.3708 375.388 68.3725C375.384 68.3712 375.381 68.3704 375.381 68.3703Z" fill="white"/>
<path opacity="0.2" fill-rule="evenodd" clip-rule="evenodd" d="M12.1376 477.882L34.5711 380L36.3729 380.482L13.9422 478.353C13.5557 480.246 14.5018 482.133 16.0934 482.772C17.6647 483.403 19.4311 482.643 20.2122 480.947L51.2625 391.721L53 392.427L21.934 481.698C21.9241 481.727 21.913 481.755 21.9007 481.782C20.7265 484.404 17.9586 485.661 15.447 484.653C12.9466 483.649 11.5466 480.74 12.1327 477.905L12.1376 477.882Z" fill="white"/>
<path opacity="0.2" fill-rule="evenodd" clip-rule="evenodd" d="M14.9695 141.302C24.8535 139.392 34.1996 146.749 35.8966 157.621L53 267.204L51.1484 267.531L34.0449 157.948C32.5074 148.097 24.087 141.569 15.305 143.266C6.5481 144.958 0.608845 154.215 2.10792 164.04C2.10801 164.04 2.1081 164.041 2.10819 164.041L24.0744 304.673L22.2228 305L0.256026 164.365L0.255471 164.361C-1.39724 153.536 5.13789 143.202 14.9695 141.302L14.9695 141.302Z" fill="white"/>
<path opacity="0.2" fill-rule="evenodd" clip-rule="evenodd" d="M8 144.779C11.8355 141.257 18.0541 139 23.4364 139H159.464C174.41 139 187.17 150.807 189.821 166.977L216 326.658L214.151 327L187.973 167.32C185.469 152.05 173.447 140.994 159.464 140.994H23.4364C18.4489 140.994 12.6816 143.116 9.227 146.288L8 144.779Z" fill="white"/>
<path opacity="0.2" fill-rule="evenodd" clip-rule="evenodd" d="M265.618 277.977L265.829 276L288.886 278.832C304.353 280.743 316 295.492 316 312.969V359.658C316 378.574 302.424 394 285.575 394H264V392.01H285.575C301.308 392.01 314.144 377.575 314.144 359.658V312.969C314.144 296.419 303.129 282.596 288.674 280.809" fill="white"/>
<path opacity="0.2" fill-rule="evenodd" clip-rule="evenodd" d="M269.118 278.361L205 270.994L205.203 269L269.331 276.368C283.398 278.06 294 291.184 294 306.75V364.216C294 376.53 287.405 387.162 277.876 392L277.06 390.191C285.928 385.688 292.11 375.763 292.11 364.216V306.75C292.11 292.139 282.17 279.932 269.121 278.361C269.12 278.361 269.119 278.361 269.118 278.361Z" fill="white"/>
<path opacity="0.2" fill-rule="evenodd" clip-rule="evenodd" d="M272.408 378.969H199.795V377H272.408C276.67 377 280 380.882 280 385.499C280 390.118 276.67 394 272.408 394H136V392.031H272.408C275.488 392.031 278.112 389.183 278.112 385.499C278.112 381.817 275.488 378.969 272.408 378.969Z" fill="white"/>
<path opacity="0.2" fill-rule="evenodd" clip-rule="evenodd" d="M261.904 327.987H195.114V326H261.904C275.249 326 286 337.904 286 352.499C286 367.096 275.249 379 261.904 379H190V377.013H261.904C274.135 377.013 284.118 366.078 284.118 352.499C284.118 338.922 274.135 327.987 261.904 327.987Z" fill="white"/>
<path opacity="0.2" fill-rule="evenodd" clip-rule="evenodd" d="M54.2606 268.229C36.0937 265.797 20.6311 283.255 23.1533 303.738L30.8036 365.864C32.7245 381.463 44.6214 393 58.5853 393H140.071C155.507 393 168.116 378.985 168.116 361.567V311.373C168.116 295.407 157.456 282.043 143.397 280.161L54.2606 268.229ZM54.4961 266.244L54.3783 267.237L54.4961 266.244L143.633 278.176C158.707 280.194 170 294.48 170 311.373V361.567C170 379.991 156.638 395 140.071 395H58.5853C43.6019 395 30.9698 382.639 28.936 366.123L21.2857 303.997L22.2186 303.868L21.2857 303.997C18.621 282.357 34.9751 263.631 54.4961 266.244Z" fill="white"/>
<path opacity="0.2" fill-rule="evenodd" clip-rule="evenodd" d="M168.413 283.707L102.049 274.979L102.281 273L168.644 281.728C184.279 283.784 196 298.414 196 315.721V359.765C196 378.633 182.144 394 164.972 394H90V392.006H164.972C181.033 392.006 194.119 377.61 194.119 359.765V315.721C194.119 299.356 183.046 285.631 168.413 283.707Z" fill="white"/>
<path opacity="0.2" fill-rule="evenodd" clip-rule="evenodd" d="M136.482 160.115C136.924 159.859 137.47 160.045 137.703 160.532L136.904 160.996C137.703 160.532 137.703 160.531 137.703 160.532L137.706 160.538L137.713 160.553L137.74 160.61C137.763 160.659 137.796 160.732 137.84 160.826C137.927 161.016 138.052 161.295 138.21 161.656C138.526 162.38 138.971 163.435 139.49 164.772C140.529 167.445 141.868 171.249 143.077 175.782C145.489 184.829 147.4 196.864 145.274 208.62C145.111 209.525 145.11 210.42 145.2 211.181C145.292 211.959 145.469 212.529 145.612 212.808C146.967 215.451 154.791 234.564 151.701 256.986C151.373 259.366 151.763 260.537 152.12 261.201C153.424 263.625 156.839 270.537 158.977 280.78C159.089 281.316 158.785 281.851 158.299 281.974C157.813 282.098 157.328 281.763 157.216 281.227C155.132 271.24 151.806 264.523 150.566 262.218C149.96 261.091 149.536 259.439 149.915 256.687C152.923 234.851 145.272 216.196 144.04 213.789M136.104 161.461L136.106 161.464L136.111 161.475L136.134 161.524C136.155 161.568 136.186 161.635 136.227 161.725C136.309 161.903 136.43 162.171 136.582 162.52C136.888 163.22 137.321 164.248 137.829 165.556C138.846 168.173 140.159 171.902 141.343 176.344C143.716 185.245 145.547 196.924 143.502 208.23C143.296 209.373 143.296 210.488 143.408 211.438C143.518 212.371 143.744 213.214 144.04 213.789M136.482 160.115C136.041 160.372 135.872 160.974 136.104 161.461Z" fill="white"/>
<path opacity="0.2" fill-rule="evenodd" clip-rule="evenodd" d="M85.5016 160.116C85.9608 159.858 86.5294 160.045 86.7716 160.535L85.9401 161.002C86.7716 160.535 86.7714 160.534 86.7716 160.535L86.7747 160.541L86.7822 160.556L86.81 160.614C86.8341 160.663 86.8691 160.736 86.9143 160.831C87.0046 161.022 87.1355 161.303 87.2997 161.666C87.6283 162.394 88.0908 163.456 88.6313 164.801C89.7118 167.49 91.1059 171.317 92.3631 175.878C94.8725 184.98 96.8615 197.088 94.6493 208.915C94.479 209.826 94.4784 210.726 94.572 211.492C94.6675 212.275 94.8525 212.849 95.0011 213.129C96.4102 215.788 104.551 235.017 101.336 257.575C100.995 259.969 101.4 261.148 101.772 261.816C102.786 263.639 104.982 268.26 106.953 274.686C107.115 275.212 106.845 275.778 106.352 275.95C105.859 276.122 105.328 275.835 105.166 275.309C103.235 269.014 101.095 264.528 100.155 262.838C99.5246 261.705 99.0828 260.043 99.4774 257.274C102.608 235.304 94.6463 216.535 93.3645 214.115M85.1087 161.47L85.1099 161.472L85.1156 161.484L85.1396 161.533C85.1611 161.578 85.1936 161.645 85.2362 161.735C85.3214 161.915 85.4469 162.184 85.6057 162.536C85.9235 163.239 86.3745 164.274 86.9031 165.59C87.9607 168.222 89.3273 171.974 90.5594 176.443C93.0285 185.399 94.9332 197.148 92.8055 208.523C92.5904 209.673 92.591 210.795 92.7077 211.751C92.8223 212.689 93.0578 213.537 93.3645 214.115M85.5016 160.116C85.0425 160.374 84.8666 160.98 85.1087 161.47Z" fill="white"/>
<path opacity="0.2" d="M92.5 216C94.433 216 96 214.433 96 212.5C96 210.567 94.433 209 92.5 209C90.567 209 89 210.567 89 212.5C89 214.433 90.567 216 92.5 216Z" fill="white"/>
<path opacity="0.2" d="M143 216C144.657 216 146 214.433 146 212.5C146 210.567 144.657 209 143 209C141.343 209 140 210.567 140 212.5C140 214.433 141.343 216 143 216Z" fill="white"/>
<path opacity="0.2" d="M99 265C100.657 265 102 263.433 102 261.5C102 259.567 100.657 258 99 258C97.3431 258 96 259.567 96 261.5C96 263.433 97.3431 265 99 265Z" fill="white"/>
<path opacity="0.2" d="M149.5 265C151.433 265 153 263.433 153 261.5C153 259.567 151.433 258 149.5 258C147.567 258 146 259.567 146 261.5C146 263.433 147.567 265 149.5 265Z" fill="white"/>
</g>
</g>
<defs>
<clipPath id="clip0_1_477">
<rect width="734" height="381" fill="white"/>
</clipPath>
</defs>
</svg>
