<svg width="17" height="14" viewBox="0 0 17 14" fill="none" xmlns="http://www.w3.org/2000/svg">
<path fill-rule="evenodd" clip-rule="evenodd" d="M15.2154 11.5145C15.4614 11.5145 15.7248 11.4618 15.9707 11.3915C16.2517 11.3037 16.5502 11.4618 16.638 11.7428L16.9191 12.6737C16.9894 12.9196 16.884 13.1655 16.6733 13.2885C16.0058 13.6398 15.2856 13.8154 14.6182 13.8154C13.09 13.8154 11.7903 12.9021 11.597 11.1456C10.6661 12.9021 8.92718 13.8154 6.71416 13.8154C2.70931 13.8154 0.478653 10.7065 0.478653 7.14088C0.478653 3.57527 2.65677 0.360935 6.67889 0.360935C8.87464 0.360935 10.5081 1.2743 11.3336 2.83754V1.20404C11.3336 0.905447 11.5619 0.677109 11.8606 0.677109H13.3009C13.5994 0.677109 13.8279 0.905447 13.8279 1.20404V9.98634C13.8279 11.0402 14.4777 11.5145 15.2154 11.5145ZM3.00798 7.08818C3.00798 9.70531 4.6591 11.532 7.11808 11.532C9.54197 11.532 11.2809 9.72287 11.2809 7.08818C11.2809 4.4535 9.57706 2.64434 7.083 2.64434C4.41316 2.64434 3.00798 4.68183 3.00798 7.08818Z" fill="white"/>
</svg>
