<svg width="16" height="18" viewBox="0 0 16 18" fill="none" xmlns="http://www.w3.org/2000/svg">
<path fill-rule="evenodd" clip-rule="evenodd" d="M13.5241 17.592H15.1104C15.4811 17.592 15.7358 17.2213 15.6023 16.8752L9.3589 0.69756C9.2816 0.493781 9.08486 0.36027 8.86701 0.36027H6.77125C6.55341 0.36027 6.35841 0.493781 6.27937 0.69756L0.035962 16.8752C-0.097549 17.2213 0.157176 17.592 0.527845 17.592H2.06322C2.28106 17.592 2.47606 17.4585 2.5551 17.2547L3.85157 13.8958C3.86387 13.8625 3.89725 13.8396 3.93413 13.8396H11.6532C11.6901 13.8396 11.7217 13.8625 11.7357 13.8958L13.0322 17.2547C13.1095 17.4567 13.3063 17.592 13.5241 17.592ZM4.85115 11.3135L7.69879 3.88427C7.7269 3.80872 7.83406 3.80872 7.86218 3.88427L10.7344 11.3135C10.7573 11.3714 10.7133 11.4329 10.6519 11.4329H4.93371C4.87047 11.4329 4.82831 11.3714 4.85115 11.3135Z" fill="white"/>
</svg>
