<svg width="14" height="14" viewBox="0 0 14 14" fill="none" xmlns="http://www.w3.org/2000/svg">
<g clip-path="url(#clip0_1_262)">
<path fill-rule="evenodd" clip-rule="evenodd" d="M0.125 7C0.125 6.58579 0.460786 6.25 0.875 6.25H13.125C13.5392 6.25 13.875 6.58579 13.875 7C13.875 7.41421 13.5392 7.75 13.125 7.75H0.875C0.460786 7.75 0.125 7.41421 0.125 7Z" fill="white"/>
<path fill-rule="evenodd" clip-rule="evenodd" d="M8.28314 0.913078C8.6073 0.65522 9.07912 0.708972 9.33698 1.03314L13.712 6.53314C13.9294 6.80644 13.9294 7.19362 13.712 7.46692L9.33698 12.9669C9.07912 13.2911 8.6073 13.3448 8.28314 13.087C7.95897 12.8291 7.90522 12.3573 8.16308 12.0331L12.1667 7.00003L8.16308 1.96692C7.90522 1.64276 7.95897 1.17094 8.28314 0.913078Z" fill="white"/>
</g>
<defs>
<clipPath id="clip0_1_262">
<rect width="14" height="14" fill="white"/>
</clipPath>
</defs>
</svg>
