<svg width="13" height="22" viewBox="0 0 13 22" fill="none" xmlns="http://www.w3.org/2000/svg">
<path fill-rule="evenodd" clip-rule="evenodd" d="M4.93414 1.93414C6.01247 0.855797 7.47501 0.25 9 0.25H12C12.4142 0.25 12.75 0.585786 12.75 1V5C12.75 5.41421 12.4142 5.75 12 5.75H9C8.93371 5.75 8.87013 5.77633 8.82323 5.82321C8.82322 5.82322 8.82322 5.82322 8.82321 5.82323M8.75 8.25V6C8.75 5.93371 8.77633 5.87013 8.82321 5.82323M8.75 8.25H12C12.231 8.25 12.449 8.3564 12.5912 8.53844C12.7333 8.72048 12.7836 8.95785 12.7276 9.1819L11.7276 13.1819C11.6441 13.5158 11.3442 13.75 11 13.75H8.75V21C8.75 21.4142 8.41421 21.75 8 21.75H4C3.58579 21.75 3.25 21.4142 3.25 21V13.75H1C0.585786 13.75 0.25 13.4142 0.25 13V9C0.25 8.58579 0.585786 8.25 1 8.25H3.25V6C3.25 4.47501 3.8558 3.01247 4.93414 1.93414M9 1.75C7.87283 1.75 6.79183 2.19776 5.9948 2.9948L5.9948 2.9948C5.19776 3.79183 4.75 4.87283 4.75 6V9C4.75 9.41421 4.41421 9.75 4 9.75H1.75V12.25H4C4.41421 12.25 4.75 12.5858 4.75 13V20.25H7.25V13C7.25 12.5858 7.58579 12.25 8 12.25H10.4144L11.0394 9.75H8C7.58579 9.75 7.25 9.41421 7.25 9V6C7.25 5.53586 7.43438 5.09076 7.76255 4.76257L7.76257 4.76255C8.09075 4.43438 8.53586 4.25 9 4.25H11.25V1.75H9Z" fill="white"/>
</svg>
