<svg width="22" height="22" viewBox="0 0 22 22" fill="none" xmlns="http://www.w3.org/2000/svg">
<g clip-path="url(#clip0_1_543)">
<path fill-rule="evenodd" clip-rule="evenodd" d="M0.25 6C0.25 2.82437 2.82437 0.25 6 0.25H16C19.1756 0.25 21.75 2.82436 21.75 6V16C21.75 19.1756 19.1756 21.75 16 21.75H6C2.82436 21.75 0.25 19.1756 0.25 16V6ZM6 1.75C3.65279 1.75 1.75 3.65279 1.75 6V16C1.75 18.3472 3.6528 20.25 6 20.25H16C18.3472 20.25 20.25 18.3472 20.25 16V6C20.25 3.6528 18.3472 1.75 16 1.75H6Z" fill="white"/>
<path fill-rule="evenodd" clip-rule="evenodd" d="M11.5202 7.74171C10.8439 7.64143 10.1534 7.75693 9.54661 8.07178C8.93983 8.38662 8.44778 8.88477 8.14045 9.49538C7.83311 10.106 7.72614 10.7979 7.83474 11.4729C7.94334 12.1478 8.26196 12.7712 8.74535 13.2547C8.74536 13.2547 8.74538 13.2547 8.7454 13.2547M12.5046 13.8596C11.894 14.1669 11.202 14.2739 10.5272 14.1652L10.5271 14.1652C9.85224 14.0567 9.22879 13.7381 8.7454 13.2547M12.5046 13.8596C13.1153 13.5522 13.6135 13.0601 13.9283 12.4534C14.2431 11.8466 14.3586 11.156 14.2583 10.4798M11.5202 7.74171L11.6302 6.99982ZM8.85575 6.74034C9.74257 6.28019 10.7519 6.11137 11.7402 6.25793C12.7483 6.40742 13.6815 6.87717 14.4022 7.59776L14.4023 7.59781C15.1228 8.31842 15.5926 9.25169 15.7421 10.2598L15.7421 10.2598C15.8886 11.248 15.7199 12.2574 15.2597 13.1442C14.7995 14.0311 14.0714 14.7502 13.179 15.1994L13.179 15.1995C12.2866 15.6485 11.2753 15.805 10.2889 15.6462C9.30243 15.4875 8.39118 15.0218 7.68471 14.3154L7.68467 14.3153C6.97824 13.6088 6.51252 12.6976 6.35379 11.7112L6.35379 11.7112C6.19507 10.7247 6.35141 9.71343 6.80059 8.821C7.24978 7.92856 7.96893 7.2005 8.85575 6.74034ZM13.3415 8.65843C12.8484 8.16536 12.2099 7.84398 11.5202 7.74171L11.6302 6.99982M13.3415 8.65843C13.3416 8.65844 13.3416 8.65846 13.3416 8.65847C13.8346 9.15155 14.156 9.7901 14.2583 10.4798" fill="white"/>
<path fill-rule="evenodd" clip-rule="evenodd" d="M15.75 5.5C15.75 5.08579 16.0858 4.75 16.5 4.75H16.51C16.9242 4.75 17.26 5.08579 17.26 5.5C17.26 5.91421 16.9242 6.25 16.51 6.25H16.5C16.0858 6.25 15.75 5.91421 15.75 5.5Z" fill="white"/>
</g>
<defs>
<clipPath id="clip0_1_543">
<rect width="22" height="22" fill="white"/>
</clipPath>
</defs>
</svg>
