<svg width="6" height="18" viewBox="0 0 6 18" fill="none" xmlns="http://www.w3.org/2000/svg">
<path d="M3.23476 17.7343C3.8707 17.8256 4.41532 17.7167 4.74378 17.6517C4.93702 17.613 5.11103 17.5674 5.26037 17.5217C5.44126 17.4655 5.56238 17.2951 5.55022 17.1053L5.44655 15.5963C5.43068 15.3592 5.2147 15.187 4.97739 15.2239H4.97228C4.71575 15.2625 4.5874 15.2819 4.43295 15.2696C4.2607 15.2555 4.02885 15.2362 3.8462 15.0728C3.58261 14.8357 3.60201 14.458 3.60553 14.3894V0.71159C3.60553 0.419974 3.36999 0.184572 3.07837 0.184572H1.44117C1.14956 0.184572 0.914185 0.419974 0.914185 0.71159V15.0096C0.901843 15.2098 0.854416 16.3271 1.65732 17.079C2.2 17.5849 2.86945 17.6816 3.23476 17.7343Z" fill="white"/>
</svg>
