<svg width="23" height="14" viewBox="0 0 23 14" fill="none" xmlns="http://www.w3.org/2000/svg">
<path d="M12.9627 2.67396C13.8675 1.43196 15.394 0.448189 17.5425 0.448189C20.5429 0.448189 22.147 2.33668 22.147 5.54446V13.0632C22.147 13.3549 21.9114 13.5903 21.6198 13.5903H19.9826C19.691 13.5903 19.4556 13.3549 19.4556 13.0632V5.75174C19.4556 4.09515 18.6527 2.9568 16.7907 2.9568C15.1604 2.9568 13.9185 3.96516 13.5565 5.44081V13.0632C13.5565 13.3549 13.3211 13.5903 13.0295 13.5903H11.3922C11.1005 13.5903 10.8652 13.3549 10.8652 13.0632V5.75174C10.8652 4.09515 10.0624 2.9568 8.20026 2.9568C6.56994 2.9568 5.32802 3.96516 4.96606 5.44081V13.0632C4.96606 13.3549 4.73069 13.5903 4.43907 13.5903H2.80187C2.51026 13.5903 2.27489 13.3549 2.27489 13.0632V3.96692C2.27489 3.37138 1.96388 3.11315 1.44747 3.11315C1.39651 3.11315 1.34733 3.11491 1.2999 3.11842C1.00828 3.13774 0.755282 2.92166 0.734125 2.6283L0.646323 1.31427C0.630456 1.06832 0.786841 0.845218 1.02398 0.773196C1.33498 0.676561 1.70911 0.604539 2.27489 0.604539C3.72414 0.604539 4.62878 1.30373 4.88884 2.46668C5.6653 1.32832 7.01088 0.448189 8.95045 0.448189C10.8934 0.448189 12.2652 1.25101 12.9627 2.67396Z" fill="white"/>
</svg>
