<svg width="24" height="20" viewBox="0 0 24 20" fill="none" xmlns="http://www.w3.org/2000/svg">
<path fill-rule="evenodd" clip-rule="evenodd" d="M14.6147 0.593816C15.6156 0.211769 16.7097 0.146353 17.749 0.40641L17.567 1.13398L17.7491 0.406411C18.6237 0.625262 19.424 1.06572 20.0747 1.68158C20.9604 1.37111 21.7996 0.939022 22.5677 0.397189C22.8232 0.216987 23.1636 0.214154 23.4221 0.390081C23.6805 0.566007 23.8027 0.883787 23.7287 1.18754C23.3872 2.58957 22.6938 3.87898 21.7168 4.93513C21.7383 5.1251 21.7494 5.31622 21.75 5.50764L21.75 5.51006C21.75 11.5225 18.8599 15.9101 14.7274 18.1097C10.6132 20.2995 5.34315 20.2809 0.635769 17.6657C0.332162 17.497 0.184077 17.142 0.277861 16.8076C0.371645 16.4732 0.682761 16.2469 1.0298 16.2607C2.91403 16.3356 4.77753 15.9198 6.44142 15.0645C4.75903 14.1082 3.58244 12.9466 2.78826 11.6926C1.81288 10.1526 1.44279 8.51851 1.37577 7.04414C1.30891 5.57304 1.54267 4.24549 1.78952 3.29103C1.91339 2.81205 2.04179 2.4223 2.14038 2.14959C2.18972 2.01312 2.23173 1.90561 2.26215 1.83051C2.27737 1.79295 2.2897 1.76347 2.29862 1.74249L2.30938 1.71745L2.31272 1.7098L2.31386 1.70721L2.3143 1.70623C2.31448 1.70583 2.31464 1.70546 3 2.01006L2.31464 1.70546C2.42438 1.45855 2.65843 1.28976 2.92735 1.26359C3.19627 1.23742 3.45848 1.35791 3.61377 1.57903C4.55301 2.91644 5.80841 4.00081 7.26821 4.73558L6.93101 5.4055L7.26821 4.73558C8.50996 5.3606 9.86679 5.71613 11.25 5.78232V5.54486C11.2367 4.47542 11.5516 3.42756 12.1525 2.54256M3.27261 3.54963C3.26231 3.5879 3.25201 3.62689 3.24174 3.6666C3.01983 4.52465 2.8161 5.69711 2.87423 6.97602C2.93221 8.25166 3.24962 9.61763 4.05549 10.8901C4.85834 12.1577 6.17453 13.378 8.30461 14.3247C8.55346 14.4353 8.72281 14.6721 8.74703 14.9434C8.77125 15.2146 8.64653 15.4777 8.42121 15.6307C7.07549 16.5441 5.57175 17.178 3.99869 17.5069C7.5178 18.654 11.1191 18.331 14.0226 16.7855C17.6399 14.8602 20.2496 10.9982 20.25 5.51134C20.2492 5.27967 20.2269 5.04852 20.1833 4.82088C20.1363 4.57498 20.2151 4.32185 20.3934 4.14606C20.8251 3.72029 21.1973 3.24213 21.5025 2.72482C21.0399 2.9332 20.5635 3.11147 20.0763 3.25821C19.7938 3.34326 19.4877 3.25484 19.2941 3.03226C18.7926 2.45568 18.1262 2.04703 17.385 1.86155C16.6437 1.67608 15.8634 1.72273 15.1495 1.9952C14.4357 2.26769 13.8226 2.75284 13.3935 3.38498L13.3935 3.38504C12.9643 4.01722 12.7397 4.76595 12.7499 5.53001L12.7501 5.54006H12.75V6.54006C12.75 6.9467 12.4259 7.27927 12.0194 7.28981C10.1384 7.33857 8.27455 6.9214 6.59381 6.07543C5.3373 5.44298 4.21231 4.58556 3.27261 3.54963ZM14.6147 0.593816L14.8821 1.29451ZM12.1525 2.54251C12.7542 1.65605 13.6138 0.975844 14.6147 0.593817L14.8821 1.29451" fill="white"/>
</svg>
